<svg id="grid_to_draw_on_base" data-name="grid to draw on base" xmlns="http://www.w3.org/2000/svg" viewBox="0 0 1190.55 841.89"><defs><style>.cls-1{fill:none;stroke:#231f20;stroke-miterlimit:10;}</style></defs><rect class="cls-1" width="1190.55" height="841.89"/><line class="cls-1" y2="841.89"/><line class="cls-1" x1="85.04" x2="85.04" y2="841.89"/><line class="cls-1" x1="170.08" x2="170.08" y2="841.89"/><line class="cls-1" x1="255.12" x2="255.12" y2="841.89"/><line class="cls-1" x1="340.16" x2="340.16" y2="841.89"/><line class="cls-1" x1="425.2" x2="425.2" y2="841.89"/><line class="cls-1" x1="510.24" x2="510.24" y2="841.89"/><line class="cls-1" x1="595.28" x2="595.28" y2="841.89"/><line class="cls-1" x1="680.31" x2="680.31" y2="841.89"/><line class="cls-1" x1="765.35" x2="765.35" y2="841.89"/><line class="cls-1" x1="850.39" x2="850.39" y2="841.89"/><line class="cls-1" x1="935.43" x2="935.43" y2="841.89"/><line class="cls-1" x1="1020.47" x2="1020.47" y2="841.89"/><line class="cls-1" x1="1105.51" x2="1105.51" y2="841.89"/><line class="cls-1" x2="1190.55"/><line class="cls-1" y1="85.04" x2="1190.55" y2="85.04"/><line class="cls-1" y1="170.08" x2="1190.55" y2="170.08"/><line class="cls-1" y1="255.12" x2="1190.55" y2="255.12"/><line class="cls-1" y1="340.16" x2="1190.55" y2="340.16"/><line class="cls-1" y1="425.2" x2="1190.55" y2="425.2"/><line class="cls-1" y1="510.24" x2="1190.55" y2="510.24"/><line class="cls-1" y1="595.28" x2="1190.55" y2="595.28"/><line class="cls-1" y1="680.31" x2="1190.55" y2="680.31"/><line class="cls-1" y1="765.35" x2="1190.55" y2="765.35"/><line class="cls-1" y2="85.04"/><line class="cls-1" x2="85.04"/><line class="cls-1" x1="42.52" y1="25.51" x2="42.52" y2="59.53"/><line class="cls-1" x1="25.51" y1="42.52" x2="59.53" y2="42.52"/><line class="cls-1" x1="212.6" y1="25.51" x2="212.6" y2="59.53"/><line class="cls-1" x1="195.59" y1="42.52" x2="229.61" y2="42.52"/><line class="cls-1" x1="382.68" y1="25.51" x2="382.68" y2="59.53"/><line class="cls-1" x1="365.67" y1="42.52" x2="399.69" y2="42.52"/><line class="cls-1" x1="552.76" y1="25.51" x2="552.76" y2="59.53"/><line class="cls-1" x1="535.75" y1="42.52" x2="569.76" y2="42.52"/><line class="cls-1" x1="722.83" y1="25.51" x2="722.83" y2="59.53"/><line class="cls-1" x1="705.83" y1="42.52" x2="739.84" y2="42.52"/><line class="cls-1" x1="892.91" y1="25.51" x2="892.91" y2="59.53"/><line class="cls-1" x1="875.91" y1="42.52" x2="909.92" y2="42.52"/><line class="cls-1" x1="1062.99" y1="25.51" x2="1062.99" y2="59.53"/><line class="cls-1" x1="1045.98" y1="42.52" x2="1080" y2="42.52"/><line class="cls-1" x1="42.52" y1="195.59" x2="42.52" y2="229.61"/><line class="cls-1" x1="25.51" y1="212.6" x2="59.53" y2="212.6"/><line class="cls-1" x1="42.52" y1="365.67" x2="42.52" y2="399.69"/><line class="cls-1" x1="25.51" y1="382.68" x2="59.53" y2="382.68"/><line class="cls-1" x1="42.52" y1="535.75" x2="42.52" y2="569.76"/><line class="cls-1" x1="25.51" y1="552.76" x2="59.53" y2="552.76"/><line class="cls-1" x1="42.52" y1="705.83" x2="42.52" y2="739.84"/><line class="cls-1" x1="25.51" y1="722.83" x2="59.53" y2="722.83"/></svg>