<svg xmlns="http://www.w3.org/2000/svg" viewBox="0 0 2088 1728"><defs><style>.cls-1{fill:none;stroke:#231f20;stroke-miterlimit:10;}</style></defs><g id="paper_template" data-name="paper template"><rect class="cls-1" x="398.06" y="537.45" width="85.04" height="85.04"/><rect class="cls-1" x="313.02" y="537.45" width="85.04" height="85.04"/><rect class="cls-1" x="227.98" y="537.45" width="85.04" height="85.04"/><rect class="cls-1" x="227.98" y="112.25" width="85.04" height="85.04"/><rect class="cls-1" x="483.09" y="537.45" width="85.04" height="85.04"/><rect class="cls-1" x="568.13" y="537.45" width="85.04" height="85.04"/><rect class="cls-1" x="653.17" y="537.45" width="85.04" height="85.04"/><rect class="cls-1" x="738.21" y="537.45" width="85.04" height="85.04"/><rect class="cls-1" x="823.25" y="537.45" width="85.04" height="85.04"/><rect class="cls-1" x="908.29" y="537.45" width="85.04" height="85.04"/><rect class="cls-1" x="993.33" y="537.45" width="85.04" height="85.04"/><rect class="cls-1" x="1078.37" y="537.45" width="85.04" height="85.04"/><rect class="cls-1" x="1163.41" y="537.45" width="85.04" height="85.04"/><rect class="cls-1" x="1248.45" y="537.45" width="85.04" height="85.04"/><rect class="cls-1" x="1333.49" y="537.45" width="85.04" height="85.04"/><rect class="cls-1" x="1418.53" y="537.45" width="85.04" height="85.04"/><rect class="cls-1" x="1503.57" y="537.45" width="85.04" height="85.04"/><rect class="cls-1" x="398.06" y="622.49" width="85.04" height="85.04"/><rect class="cls-1" x="483.09" y="622.49" width="85.04" height="85.04"/><rect class="cls-1" x="568.13" y="622.49" width="85.04" height="85.04"/><rect class="cls-1" x="653.17" y="622.49" width="85.04" height="85.04"/><rect class="cls-1" x="738.21" y="622.49" width="85.04" height="85.04"/><rect class="cls-1" x="823.25" y="622.49" width="85.04" height="85.04"/><rect class="cls-1" x="908.29" y="622.49" width="85.04" height="85.04"/><rect class="cls-1" x="993.33" y="622.49" width="85.04" height="85.04"/><rect class="cls-1" x="1078.37" y="622.49" width="85.04" height="85.04"/><rect class="cls-1" x="1163.41" y="622.49" width="85.04" height="85.04"/><rect class="cls-1" x="1248.45" y="622.49" width="85.04" height="85.04"/><rect class="cls-1" x="1333.49" y="622.49" width="85.04" height="85.04"/><rect class="cls-1" x="1418.53" y="622.49" width="85.04" height="85.04"/><rect class="cls-1" x="1503.57" y="622.49" width="85.04" height="85.04"/><rect class="cls-1" x="398.06" y="707.53" width="85.04" height="85.04"/><rect class="cls-1" x="483.09" y="707.53" width="85.04" height="85.04"/><rect class="cls-1" x="568.13" y="707.53" width="85.04" height="85.04"/><rect class="cls-1" x="653.17" y="707.53" width="85.04" height="85.04"/><rect class="cls-1" x="738.21" y="707.53" width="85.04" height="85.04"/><rect class="cls-1" x="823.25" y="707.53" width="85.04" height="85.04"/><rect class="cls-1" x="908.29" y="707.53" width="85.04" height="85.04"/><rect class="cls-1" x="993.33" y="707.53" width="85.04" height="85.04"/><rect class="cls-1" x="1078.37" y="707.53" width="85.04" height="85.04"/><rect class="cls-1" x="1163.41" y="707.53" width="85.04" height="85.04"/><rect class="cls-1" x="1248.45" y="707.53" width="85.04" height="85.04"/><rect class="cls-1" x="1333.49" y="707.53" width="85.04" height="85.04"/><rect class="cls-1" x="1418.53" y="707.53" width="85.04" height="85.04"/><rect class="cls-1" x="1503.57" y="707.53" width="85.04" height="85.04"/><rect class="cls-1" x="398.06" y="792.57" width="85.04" height="85.04"/><rect class="cls-1" x="483.09" y="792.57" width="85.04" height="85.04"/><rect class="cls-1" x="568.13" y="792.57" width="85.04" height="85.04"/><rect class="cls-1" x="653.17" y="792.57" width="85.04" height="85.04"/><rect class="cls-1" x="738.21" y="792.57" width="85.04" height="85.04"/><rect class="cls-1" x="823.25" y="792.57" width="85.04" height="85.04"/><rect class="cls-1" x="908.29" y="792.57" width="85.04" height="85.04"/><rect class="cls-1" x="993.33" y="792.57" width="85.04" height="85.04"/><rect class="cls-1" x="1078.37" y="792.57" width="85.04" height="85.04"/><rect class="cls-1" x="1163.41" y="792.57" width="85.04" height="85.04"/><rect class="cls-1" x="1248.45" y="792.57" width="85.04" height="85.04"/><rect class="cls-1" x="1333.49" y="792.57" width="85.04" height="85.04"/><rect class="cls-1" x="1418.53" y="792.57" width="85.04" height="85.04"/><rect class="cls-1" x="1503.57" y="792.57" width="85.04" height="85.04"/><rect class="cls-1" x="398.06" y="877.61" width="85.04" height="85.04"/><rect class="cls-1" x="483.09" y="877.61" width="85.04" height="85.04"/><rect class="cls-1" x="568.13" y="877.61" width="85.04" height="85.04"/><rect class="cls-1" x="653.17" y="877.61" width="85.04" height="85.04"/><rect class="cls-1" x="738.21" y="877.61" width="85.04" height="85.04"/><rect class="cls-1" x="823.25" y="877.61" width="85.04" height="85.04"/><rect class="cls-1" x="908.29" y="877.61" width="85.04" height="85.04"/><rect class="cls-1" x="993.33" y="877.61" width="85.04" height="85.04"/><rect class="cls-1" x="1078.37" y="877.61" width="85.04" height="85.04"/><rect class="cls-1" x="1163.41" y="877.61" width="85.04" height="85.04"/><rect class="cls-1" x="1248.45" y="877.61" width="85.04" height="85.04"/><rect class="cls-1" x="1333.49" y="877.61" width="85.04" height="85.04"/><rect class="cls-1" x="1418.53" y="877.61" width="85.04" height="85.04"/><rect class="cls-1" x="1503.57" y="877.61" width="85.04" height="85.04"/><rect class="cls-1" x="398.06" y="962.65" width="85.04" height="85.04"/><rect class="cls-1" x="483.09" y="962.65" width="85.04" height="85.04"/><rect class="cls-1" x="568.13" y="962.65" width="85.04" height="85.04"/><rect class="cls-1" x="653.17" y="962.65" width="85.04" height="85.04"/><rect class="cls-1" x="738.21" y="962.65" width="85.04" height="85.04"/><rect class="cls-1" x="823.25" y="962.65" width="85.04" height="85.04"/><rect class="cls-1" x="908.29" y="962.65" width="85.04" height="85.04"/><rect class="cls-1" x="993.33" y="962.65" width="85.04" height="85.04"/><rect class="cls-1" x="1078.37" y="962.65" width="85.04" height="85.04"/><rect class="cls-1" x="1163.41" y="962.65" width="85.04" height="85.04"/><rect class="cls-1" x="1248.45" y="962.65" width="85.04" height="85.04"/><rect class="cls-1" x="1333.49" y="962.65" width="85.04" height="85.04"/><rect class="cls-1" x="1418.53" y="962.65" width="85.04" height="85.04"/><rect class="cls-1" x="1503.57" y="962.65" width="85.04" height="85.04"/><rect class="cls-1" x="398.06" y="1047.69" width="85.04" height="85.04"/><rect class="cls-1" x="483.09" y="1047.69" width="85.04" height="85.04"/><rect class="cls-1" x="568.13" y="1047.69" width="85.04" height="85.04"/><rect class="cls-1" x="653.17" y="1047.69" width="85.04" height="85.04"/><rect class="cls-1" x="738.21" y="1047.69" width="85.04" height="85.04"/><rect class="cls-1" x="823.25" y="1047.69" width="85.04" height="85.04"/><rect class="cls-1" x="908.29" y="1047.69" width="85.04" height="85.04"/><rect class="cls-1" x="993.33" y="1047.69" width="85.04" height="85.04"/><rect class="cls-1" x="1078.37" y="1047.69" width="85.04" height="85.04"/><rect class="cls-1" x="1163.41" y="1047.69" width="85.04" height="85.04"/><rect class="cls-1" x="1248.45" y="1047.69" width="85.04" height="85.04"/><rect class="cls-1" x="1333.49" y="1047.69" width="85.04" height="85.04"/><rect class="cls-1" x="1418.53" y="1047.69" width="85.04" height="85.04"/><rect class="cls-1" x="1503.57" y="1047.69" width="85.04" height="85.04"/><rect class="cls-1" x="398.06" y="1132.72" width="85.04" height="85.04"/><rect class="cls-1" x="483.09" y="1132.72" width="85.04" height="85.04"/><rect class="cls-1" x="568.13" y="1132.72" width="85.04" height="85.04"/><rect class="cls-1" x="653.17" y="1132.72" width="85.04" height="85.04"/><rect class="cls-1" x="738.21" y="1132.72" width="85.04" height="85.04"/><rect class="cls-1" x="823.25" y="1132.72" width="85.04" height="85.04"/><rect class="cls-1" x="908.29" y="1132.72" width="85.04" height="85.04"/><rect class="cls-1" x="993.33" y="1132.72" width="85.04" height="85.04"/><rect class="cls-1" x="1078.37" y="1132.72" width="85.04" height="85.04"/><rect class="cls-1" x="1163.41" y="1132.72" width="85.04" height="85.04"/><rect class="cls-1" x="1248.45" y="1132.72" width="85.04" height="85.04"/><rect class="cls-1" x="1333.49" y="1132.72" width="85.04" height="85.04"/><rect class="cls-1" x="1418.53" y="1132.72" width="85.04" height="85.04"/><rect class="cls-1" x="1503.57" y="1132.72" width="85.04" height="85.04"/><rect class="cls-1" x="398.06" y="1217.76" width="85.04" height="85.04"/><rect class="cls-1" x="483.09" y="1217.76" width="85.04" height="85.04"/><rect class="cls-1" x="568.13" y="1217.76" width="85.04" height="85.04"/><rect class="cls-1" x="653.17" y="1217.76" width="85.04" height="85.04"/><rect class="cls-1" x="738.21" y="1217.76" width="85.04" height="85.04"/><rect class="cls-1" x="823.25" y="1217.76" width="85.04" height="85.04"/><rect class="cls-1" x="908.29" y="1217.76" width="85.04" height="85.04"/><rect class="cls-1" x="993.33" y="1217.76" width="85.04" height="85.04"/><rect class="cls-1" x="1078.37" y="1217.76" width="85.04" height="85.04"/><rect class="cls-1" x="1163.41" y="1217.76" width="85.04" height="85.04"/><rect class="cls-1" x="1248.45" y="1217.76" width="85.04" height="85.04"/><rect class="cls-1" x="1333.49" y="1217.76" width="85.04" height="85.04"/><rect class="cls-1" x="1418.53" y="1217.76" width="85.04" height="85.04"/><rect class="cls-1" x="1503.57" y="1217.76" width="85.04" height="85.04"/><rect class="cls-1" x="398.06" y="1302.8" width="85.04" height="85.04"/><rect class="cls-1" x="483.09" y="1302.8" width="85.04" height="85.04"/><rect class="cls-1" x="568.13" y="1302.8" width="85.04" height="85.04"/><rect class="cls-1" x="653.17" y="1302.8" width="85.04" height="85.04"/><rect class="cls-1" x="738.21" y="1302.8" width="85.04" height="85.04"/><rect class="cls-1" x="823.25" y="1302.8" width="85.04" height="85.04"/><rect class="cls-1" x="908.29" y="1302.8" width="85.04" height="85.04"/><rect class="cls-1" x="993.33" y="1302.8" width="85.04" height="85.04"/><rect class="cls-1" x="1078.37" y="1302.8" width="85.04" height="85.04"/><rect class="cls-1" x="1163.41" y="1302.8" width="85.04" height="85.04"/><rect class="cls-1" x="1248.45" y="1302.8" width="85.04" height="85.04"/><rect class="cls-1" x="1333.49" y="1302.8" width="85.04" height="85.04"/><rect class="cls-1" x="1418.53" y="1302.8" width="85.04" height="85.04"/><rect class="cls-1" x="1503.57" y="1302.8" width="85.04" height="85.04"/><rect class="cls-1" x="398.06" y="1387.84" width="85.04" height="85.04"/><rect class="cls-1" x="483.09" y="1387.84" width="85.04" height="85.04"/><rect class="cls-1" x="568.13" y="1387.84" width="85.04" height="85.04"/><rect class="cls-1" x="653.17" y="1387.84" width="85.04" height="85.04"/><rect class="cls-1" x="738.21" y="1387.84" width="85.04" height="85.04"/><rect class="cls-1" x="823.25" y="1387.84" width="85.04" height="85.04"/><rect class="cls-1" x="908.29" y="1387.84" width="85.04" height="85.04"/><rect class="cls-1" x="993.33" y="1387.84" width="85.04" height="85.04"/><rect class="cls-1" x="1078.37" y="1387.84" width="85.04" height="85.04"/><rect class="cls-1" x="1163.41" y="1387.84" width="85.04" height="85.04"/><rect class="cls-1" x="1248.45" y="1387.84" width="85.04" height="85.04"/><rect class="cls-1" x="1333.49" y="1387.84" width="85.04" height="85.04"/><rect class="cls-1" x="1418.53" y="1387.84" width="85.04" height="85.04"/><rect class="cls-1" x="1503.57" y="1387.84" width="85.04" height="85.04"/><rect class="cls-1" x="313.02" y="622.49" width="85.04" height="85.04" transform="translate(1020.54 309.47) rotate(90)"/><rect class="cls-1" x="313.02" y="707.53" width="85.04" height="85.04" transform="translate(1105.58 394.51) rotate(90)"/><rect class="cls-1" x="313.02" y="792.57" width="85.04" height="85.04" transform="translate(1190.62 479.55) rotate(90)"/><rect class="cls-1" x="313.02" y="877.61" width="85.04" height="85.04" transform="translate(1275.66 564.59) rotate(90)"/><rect class="cls-1" x="313.02" y="962.65" width="85.04" height="85.04" transform="translate(1360.7 649.63) rotate(90)"/><rect class="cls-1" x="313.02" y="1047.69" width="85.04" height="85.04" transform="translate(1445.74 734.67) rotate(90)"/><rect class="cls-1" x="313.02" y="1132.72" width="85.04" height="85.04" transform="translate(1530.78 819.71) rotate(90)"/><rect class="cls-1" x="313.02" y="1217.76" width="85.04" height="85.04" transform="translate(1615.82 904.75) rotate(90)"/><rect class="cls-1" x="313.02" y="1302.8" width="85.04" height="85.04" transform="translate(1700.86 989.79) rotate(90)"/><rect class="cls-1" x="398.06" y="1472.88" width="85.04" height="85.04"/><rect class="cls-1" x="483.09" y="1472.88" width="85.04" height="85.04"/><rect class="cls-1" x="568.13" y="1472.88" width="85.04" height="85.04"/><rect class="cls-1" x="653.17" y="1472.88" width="85.04" height="85.04"/><rect class="cls-1" x="738.21" y="1472.88" width="85.04" height="85.04"/><rect class="cls-1" x="823.25" y="1472.88" width="85.04" height="85.04"/><rect class="cls-1" x="908.29" y="1472.88" width="85.04" height="85.04"/><rect class="cls-1" x="993.33" y="1472.88" width="85.04" height="85.04"/><rect class="cls-1" x="1078.37" y="1472.88" width="85.04" height="85.04"/><rect class="cls-1" x="1163.41" y="1472.88" width="85.04" height="85.04"/><rect class="cls-1" x="1248.45" y="1472.88" width="85.04" height="85.04"/><rect class="cls-1" x="1333.49" y="1472.88" width="85.04" height="85.04"/><rect class="cls-1" x="1418.53" y="1472.88" width="85.04" height="85.04"/><rect class="cls-1" x="1588.61" y="537.45" width="85.04" height="85.04"/><rect class="cls-1" x="1673.65" y="537.45" width="85.04" height="85.04"/><rect class="cls-1" x="1673.65" y="112.25" width="85.04" height="85.04"/><rect class="cls-1" x="1588.61" y="622.49" width="85.04" height="85.04"/><rect class="cls-1" x="1588.61" y="707.53" width="85.04" height="85.04"/><rect class="cls-1" x="1588.61" y="792.57" width="85.04" height="85.04"/><rect class="cls-1" x="1588.61" y="877.61" width="85.04" height="85.04"/><rect class="cls-1" x="1588.61" y="962.65" width="85.04" height="85.04"/><rect class="cls-1" x="1588.61" y="1047.69" width="85.04" height="85.04"/><rect class="cls-1" x="1588.61" y="1132.72" width="85.04" height="85.04"/><rect class="cls-1" x="1588.61" y="1217.76" width="85.04" height="85.04"/><rect class="cls-1" x="1588.61" y="1302.8" width="85.04" height="85.04"/><rect class="cls-1" x="1588.61" y="1387.84" width="85.04" height="85.04"/><rect class="cls-1" x="1588.61" y="1472.88" width="85.04" height="85.04"/><rect class="cls-1" x="1503.57" y="1472.88" width="85.04" height="85.04"/><rect class="cls-1" x="313.02" y="1472.88" width="85.04" height="85.04" transform="translate(1870.94 1159.87) rotate(90)"/><rect class="cls-1" x="313.02" y="1387.84" width="85.04" height="85.04" transform="translate(1785.9 1074.83) rotate(90)"/><rect class="cls-1" x="483.09" y="27.21" width="85.04" height="85.04"/><rect class="cls-1" x="483.09" y="27.21" width="85.04" height="85.04"/><rect class="cls-1" x="483.09" y="112.25" width="85.04" height="85.04"/><rect class="cls-1" x="483.09" y="112.25" width="85.04" height="85.04"/><rect class="cls-1" x="313.02" y="27.21" width="85.04" height="85.04" transform="translate(425.27 -285.8) rotate(90)"/><rect class="cls-1" x="483.09" y="197.29" width="85.04" height="85.04"/><rect class="cls-1" x="483.09" y="197.29" width="85.04" height="85.04"/><rect class="cls-1" x="313.02" y="197.29" width="85.04" height="85.04" transform="translate(595.35 -115.72) rotate(90)"/><rect class="cls-1" x="313.02" y="112.25" width="85.04" height="85.04" transform="translate(510.31 -200.76) rotate(90)"/><circle class="cls-1" cx="355.54" cy="665.01" r="17.01"/><circle class="cls-1" cx="440.57" cy="579.97" r="17.01"/><circle class="cls-1" cx="355.54" cy="579.97" r="17.01"/><circle class="cls-1" cx="270.5" cy="579.97" r="17.01"/><circle class="cls-1" cx="270.5" cy="154.77" r="17.01"/><circle class="cls-1" cx="610.65" cy="579.97" r="17.01"/><circle class="cls-1" cx="780.73" cy="579.97" r="17.01"/><circle class="cls-1" cx="950.81" cy="579.97" r="17.01"/><circle class="cls-1" cx="1120.89" cy="579.97" r="17.01"/><circle class="cls-1" cx="1290.97" cy="579.97" r="17.01"/><circle class="cls-1" cx="1461.05" cy="579.97" r="17.01"/><circle class="cls-1" cx="440.57" cy="665.01" r="17.01"/><circle class="cls-1" cx="610.65" cy="665.01" r="17.01"/><circle class="cls-1" cx="780.73" cy="665.01" r="17.01"/><circle class="cls-1" cx="950.81" cy="665.01" r="17.01"/><circle class="cls-1" cx="1120.89" cy="665.01" r="17.01"/><circle class="cls-1" cx="1290.97" cy="665.01" r="17.01"/><circle class="cls-1" cx="1461.05" cy="665.01" r="17.01"/><circle class="cls-1" cx="440.57" cy="835.09" r="17.01"/><circle class="cls-1" cx="440.57" cy="1005.17" r="17.01"/><circle class="cls-1" cx="440.57" cy="1175.24" r="17.01"/><circle class="cls-1" cx="440.57" cy="1345.32" r="17.01"/><circle class="cls-1" cx="355.54" cy="835.09" r="17.01"/><circle class="cls-1" cx="355.54" cy="1005.17" r="17.01"/><circle class="cls-1" cx="355.54" cy="1175.24" r="17.01"/><circle class="cls-1" cx="355.54" cy="1345.32" r="17.01"/><circle class="cls-1" cx="440.57" cy="1515.4" r="17.01"/><circle class="cls-1" cx="610.65" cy="1515.4" r="17.01"/><circle class="cls-1" cx="780.73" cy="1515.4" r="17.01"/><circle class="cls-1" cx="950.81" cy="1515.4" r="17.01"/><circle class="cls-1" cx="1120.89" cy="1515.4" r="17.01"/><circle class="cls-1" cx="1290.97" cy="1515.4" r="17.01"/><circle class="cls-1" cx="1461.05" cy="1515.4" r="17.01"/><circle class="cls-1" cx="1631.13" cy="579.97" r="17.01"/><circle class="cls-1" cx="1716.17" cy="579.97" r="17.01"/><circle class="cls-1" cx="1716.17" cy="154.77" r="17.01"/><circle class="cls-1" cx="1631.13" cy="665.01" r="17.01"/><circle class="cls-1" cx="1631.13" cy="835.09" r="17.01"/><circle class="cls-1" cx="1631.13" cy="1005.17" r="17.01"/><circle class="cls-1" cx="1631.13" cy="1175.24" r="17.01"/><circle class="cls-1" cx="1631.13" cy="1345.32" r="17.01"/><circle class="cls-1" cx="1631.13" cy="1515.4" r="17.01"/><circle class="cls-1" cx="355.54" cy="1515.4" r="17.01"/><circle class="cls-1" cx="525.61" cy="69.73" r="17.01"/><circle class="cls-1" cx="355.54" cy="69.73" r="17.01"/><circle class="cls-1" cx="525.61" cy="239.81" r="17.01"/><circle class="cls-1" cx="355.54" cy="239.81" r="17.01"/><rect class="cls-1" x="256.5" y="197.93" width="45" height="360" rx="22.5"/><circle class="cls-1" cx="279" cy="494.93" r="9"/><rect class="cls-1" x="1723.5" y="197.93" width="45" height="360" rx="22.5"/><circle class="cls-1" cx="1746" cy="494.93" r="9"/><rect class="cls-1" x="256.5" y="282.93" width="1512" height="170.08"/><rect class="cls-1" x="67.5" y="282.97" width="189" height="170.08"/><rect class="cls-1" x="1768.5" y="282.97" width="189" height="170.08"/><line class="cls-1" x1="355.54" y1="52.72" x2="355.54" y2="86.74"/><line class="cls-1" x1="338.53" y1="69.73" x2="372.54" y2="69.73"/><line class="cls-1" x1="525.61" y1="52.72" x2="525.61" y2="86.74"/><line class="cls-1" x1="508.61" y1="69.73" x2="542.62" y2="69.73"/><line class="cls-1" x1="525.61" y1="223.1" x2="525.61" y2="257.12"/><line class="cls-1" x1="508.61" y1="240.11" x2="542.62" y2="240.11"/><line class="cls-1" x1="355.54" y1="223.1" x2="355.54" y2="257.12"/><line class="cls-1" x1="338.53" y1="240.11" x2="372.54" y2="240.11"/><line class="cls-1" x1="270.35" y1="137.91" x2="270.35" y2="171.93"/><line class="cls-1" x1="253.34" y1="154.92" x2="287.35" y2="154.92"/><line class="cls-1" x1="270.5" y1="562.96" x2="270.5" y2="596.98"/><line class="cls-1" x1="253.49" y1="579.97" x2="287.5" y2="579.97"/><line class="cls-1" x1="440.57" y1="562.96" x2="440.57" y2="596.98"/><line class="cls-1" x1="423.57" y1="579.97" x2="457.58" y2="579.97"/><line class="cls-1" x1="440.57" y1="648" x2="440.57" y2="682.02"/><line class="cls-1" x1="423.57" y1="665.01" x2="457.58" y2="665.01"/><line class="cls-1" x1="610.65" y1="648" x2="610.65" y2="682.02"/><line class="cls-1" x1="593.65" y1="665.01" x2="627.66" y2="665.01"/><line class="cls-1" x1="780.73" y1="648" x2="780.73" y2="682.02"/><line class="cls-1" x1="763.72" y1="665.01" x2="797.74" y2="665.01"/><line class="cls-1" x1="950.81" y1="648" x2="950.81" y2="682.02"/><line class="cls-1" x1="933.8" y1="665.01" x2="967.82" y2="665.01"/><line class="cls-1" x1="1120.89" y1="648" x2="1120.89" y2="682.02"/><line class="cls-1" x1="1103.88" y1="665.01" x2="1137.9" y2="665.01"/><line class="cls-1" x1="1290.97" y1="648" x2="1290.97" y2="682.02"/><line class="cls-1" x1="1273.96" y1="665.01" x2="1307.98" y2="665.01"/><line class="cls-1" x1="1461.05" y1="648" x2="1461.05" y2="682.02"/><line class="cls-1" x1="1444.04" y1="665.01" x2="1478.06" y2="665.01"/><line class="cls-1" x1="1716.17" y1="137.76" x2="1716.17" y2="171.78"/><line class="cls-1" x1="1699.16" y1="154.77" x2="1733.17" y2="154.77"/><line class="cls-1" x1="440.57" y1="818.08" x2="440.57" y2="852.09"/><line class="cls-1" x1="423.57" y1="835.09" x2="457.58" y2="835.09"/><line class="cls-1" x1="440.57" y1="988.16" x2="440.57" y2="1022.17"/><line class="cls-1" x1="423.57" y1="1005.17" x2="457.58" y2="1005.17"/><line class="cls-1" x1="440.57" y1="1158.24" x2="440.57" y2="1192.25"/><line class="cls-1" x1="423.57" y1="1175.24" x2="457.58" y2="1175.24"/><line class="cls-1" x1="440.57" y1="1328.31" x2="440.57" y2="1362.33"/><line class="cls-1" x1="423.57" y1="1345.32" x2="457.58" y2="1345.32"/><line class="cls-1" x1="440.57" y1="1498.39" x2="440.57" y2="1532.41"/><line class="cls-1" x1="423.57" y1="1515.4" x2="457.58" y2="1515.4"/><line class="cls-1" x1="355.54" y1="562.96" x2="355.54" y2="596.98"/><line class="cls-1" x1="338.53" y1="579.97" x2="372.54" y2="579.97"/><line class="cls-1" x1="355.54" y1="648" x2="355.54" y2="682.02"/><line class="cls-1" x1="338.53" y1="665.01" x2="372.54" y2="665.01"/><line class="cls-1" x1="355.54" y1="818.08" x2="355.54" y2="852.09"/><line class="cls-1" x1="338.53" y1="835.09" x2="372.54" y2="835.09"/><line class="cls-1" x1="355.54" y1="988.16" x2="355.54" y2="1022.17"/><line class="cls-1" x1="338.53" y1="1005.17" x2="372.54" y2="1005.17"/><line class="cls-1" x1="355.54" y1="1158.24" x2="355.54" y2="1192.25"/><line class="cls-1" x1="338.53" y1="1175.24" x2="372.54" y2="1175.24"/><line class="cls-1" x1="355.54" y1="1328.31" x2="355.54" y2="1362.33"/><line class="cls-1" x1="338.53" y1="1345.32" x2="372.54" y2="1345.32"/><line class="cls-1" x1="355.54" y1="1498.39" x2="355.54" y2="1532.41"/><line class="cls-1" x1="338.53" y1="1515.4" x2="372.54" y2="1515.4"/><line class="cls-1" x1="610.65" y1="562.96" x2="610.65" y2="596.98"/><line class="cls-1" x1="593.65" y1="579.97" x2="627.66" y2="579.97"/><line class="cls-1" x1="780.73" y1="562.96" x2="780.73" y2="596.98"/><line class="cls-1" x1="763.72" y1="579.97" x2="797.74" y2="579.97"/><line class="cls-1" x1="950.81" y1="562.96" x2="950.81" y2="596.98"/><line class="cls-1" x1="933.8" y1="579.97" x2="967.82" y2="579.97"/><line class="cls-1" x1="1120.89" y1="562.96" x2="1120.89" y2="596.98"/><line class="cls-1" x1="1103.88" y1="579.97" x2="1137.9" y2="579.97"/><line class="cls-1" x1="1290.97" y1="562.96" x2="1290.97" y2="596.98"/><line class="cls-1" x1="1273.96" y1="579.97" x2="1307.98" y2="579.97"/><line class="cls-1" x1="1461.05" y1="562.96" x2="1461.05" y2="596.98"/><line class="cls-1" x1="1444.04" y1="579.97" x2="1478.06" y2="579.97"/><line class="cls-1" x1="1631.13" y1="562.96" x2="1631.13" y2="596.98"/><line class="cls-1" x1="1614.12" y1="579.97" x2="1648.13" y2="579.97"/><line class="cls-1" x1="1716.17" y1="562.96" x2="1716.17" y2="596.98"/><line class="cls-1" x1="1699.16" y1="579.97" x2="1733.17" y2="579.97"/><line class="cls-1" x1="1631.13" y1="648" x2="1631.13" y2="682.02"/><line class="cls-1" x1="1614.12" y1="665.01" x2="1648.13" y2="665.01"/><line class="cls-1" x1="1631.13" y1="818.08" x2="1631.13" y2="852.09"/><line class="cls-1" x1="1614.12" y1="835.09" x2="1648.13" y2="835.09"/><line class="cls-1" x1="1631.13" y1="988.16" x2="1631.13" y2="1022.17"/><line class="cls-1" x1="1614.12" y1="1005.17" x2="1648.13" y2="1005.17"/><line class="cls-1" x1="1631.13" y1="1158.24" x2="1631.13" y2="1192.25"/><line class="cls-1" x1="1614.12" y1="1175.24" x2="1648.13" y2="1175.24"/><line class="cls-1" x1="1631.13" y1="1328.31" x2="1631.13" y2="1362.33"/><line class="cls-1" x1="1614.12" y1="1345.32" x2="1648.13" y2="1345.32"/><line class="cls-1" x1="1631.13" y1="1498.39" x2="1631.13" y2="1532.41"/><line class="cls-1" x1="1614.12" y1="1515.4" x2="1648.13" y2="1515.4"/><line class="cls-1" x1="1461.05" y1="1498.39" x2="1461.05" y2="1532.41"/><line class="cls-1" x1="1444.04" y1="1515.4" x2="1478.06" y2="1515.4"/><line class="cls-1" x1="1290.97" y1="1498.39" x2="1290.97" y2="1532.41"/><line class="cls-1" x1="1273.96" y1="1515.4" x2="1307.98" y2="1515.4"/><line class="cls-1" x1="1120.89" y1="1498.39" x2="1120.89" y2="1532.41"/><line class="cls-1" x1="1103.88" y1="1515.4" x2="1137.9" y2="1515.4"/><line class="cls-1" x1="950.81" y1="1498.39" x2="950.81" y2="1532.41"/><line class="cls-1" x1="933.8" y1="1515.4" x2="967.82" y2="1515.4"/><line class="cls-1" x1="780.73" y1="1498.39" x2="780.73" y2="1532.41"/><line class="cls-1" x1="763.72" y1="1515.4" x2="797.74" y2="1515.4"/><line class="cls-1" x1="610.65" y1="1498.39" x2="610.65" y2="1532.41"/><line class="cls-1" x1="593.65" y1="1515.4" x2="627.66" y2="1515.4"/></g></svg>