<svg xmlns="http://www.w3.org/2000/svg" viewBox="0 0 2088 1728"><defs><style>.cls-1{fill:none;stroke:#231f20;stroke-miterlimit:10;}</style></defs><g id="paper_template" data-name="paper template"><rect class="cls-1" x="1541.91" y="537.45" width="85.04" height="85.04" transform="translate(3168.85 1159.94) rotate(-180)"/><rect class="cls-1" x="1626.94" y="537.45" width="85.04" height="85.04" transform="translate(3338.93 1159.94) rotate(-180)"/><rect class="cls-1" x="1711.98" y="537.45" width="85.04" height="85.04" transform="translate(3509.01 1159.94) rotate(-180)"/><rect class="cls-1" x="1711.98" y="112.25" width="85.04" height="85.04" transform="translate(3509.01 309.54) rotate(-180)"/><rect class="cls-1" x="1456.87" y="537.45" width="85.04" height="85.04" transform="translate(2998.77 1159.94) rotate(-180)"/><rect class="cls-1" x="1371.83" y="537.45" width="85.04" height="85.04" transform="translate(2828.69 1159.94) rotate(-180)"/><rect class="cls-1" x="1286.79" y="537.45" width="85.04" height="85.04" transform="translate(2658.61 1159.94) rotate(-180)"/><rect class="cls-1" x="1201.75" y="537.45" width="85.04" height="85.04" transform="translate(2488.54 1159.94) rotate(-180)"/><rect class="cls-1" x="1116.71" y="537.45" width="85.04" height="85.04" transform="translate(2318.46 1159.94) rotate(-180)"/><rect class="cls-1" x="1031.67" y="537.45" width="85.04" height="85.04" transform="translate(2148.38 1159.94) rotate(-180)"/><rect class="cls-1" x="946.63" y="537.45" width="85.04" height="85.04" transform="translate(1978.3 1159.94) rotate(-180)"/><rect class="cls-1" x="861.59" y="537.45" width="85.04" height="85.04" transform="translate(1808.22 1159.94) rotate(-180)"/><rect class="cls-1" x="776.55" y="537.45" width="85.04" height="85.04" transform="translate(1638.14 1159.94) rotate(-180)"/><rect class="cls-1" x="691.51" y="537.45" width="85.04" height="85.04" transform="translate(1468.06 1159.94) rotate(-180)"/><rect class="cls-1" x="606.47" y="537.45" width="85.04" height="85.04" transform="translate(1297.98 1159.94) rotate(-180)"/><rect class="cls-1" x="521.43" y="537.45" width="85.04" height="85.04" transform="translate(1127.91 1159.94) rotate(-180)"/><rect class="cls-1" x="436.39" y="537.45" width="85.04" height="85.04" transform="translate(957.83 1159.94) rotate(-180)"/><rect class="cls-1" x="1541.91" y="622.49" width="85.04" height="85.04" transform="translate(3168.85 1330.02) rotate(-180)"/><rect class="cls-1" x="1456.87" y="622.49" width="85.04" height="85.04" transform="translate(2998.77 1330.02) rotate(-180)"/><rect class="cls-1" x="1371.83" y="622.49" width="85.04" height="85.04" transform="translate(2828.69 1330.02) rotate(-180)"/><rect class="cls-1" x="1286.79" y="622.49" width="85.04" height="85.04" transform="translate(2658.61 1330.02) rotate(-180)"/><rect class="cls-1" x="1201.75" y="622.49" width="85.04" height="85.04" transform="translate(2488.54 1330.02) rotate(-180)"/><rect class="cls-1" x="1116.71" y="622.49" width="85.04" height="85.04" transform="translate(2318.46 1330.02) rotate(-180)"/><rect class="cls-1" x="1031.67" y="622.49" width="85.04" height="85.04" transform="translate(2148.38 1330.02) rotate(-180)"/><rect class="cls-1" x="946.63" y="622.49" width="85.04" height="85.04" transform="translate(1978.3 1330.02) rotate(-180)"/><rect class="cls-1" x="861.59" y="622.49" width="85.04" height="85.04" transform="translate(1808.22 1330.02) rotate(-180)"/><rect class="cls-1" x="776.55" y="622.49" width="85.04" height="85.04" transform="translate(1638.14 1330.02) rotate(-180)"/><rect class="cls-1" x="691.51" y="622.49" width="85.04" height="85.04" transform="translate(1468.06 1330.02) rotate(-180)"/><rect class="cls-1" x="606.47" y="622.49" width="85.04" height="85.04" transform="translate(1297.98 1330.02) rotate(-180)"/><rect class="cls-1" x="521.43" y="622.49" width="85.04" height="85.04" transform="translate(1127.91 1330.02) rotate(-180)"/><rect class="cls-1" x="436.39" y="622.49" width="85.04" height="85.04" transform="translate(957.83 1330.02) rotate(-180)"/><rect class="cls-1" x="1541.91" y="707.53" width="85.04" height="85.04" transform="translate(3168.85 1500.09) rotate(-180)"/><rect class="cls-1" x="1456.87" y="707.53" width="85.04" height="85.04" transform="translate(2998.77 1500.09) rotate(-180)"/><rect class="cls-1" x="1371.83" y="707.53" width="85.04" height="85.04" transform="translate(2828.69 1500.09) rotate(-180)"/><rect class="cls-1" x="1286.79" y="707.53" width="85.04" height="85.04" transform="translate(2658.61 1500.09) rotate(-180)"/><rect class="cls-1" x="1201.75" y="707.53" width="85.04" height="85.04" transform="translate(2488.54 1500.09) rotate(-180)"/><rect class="cls-1" x="1116.71" y="707.53" width="85.04" height="85.04" transform="translate(2318.46 1500.09) rotate(-180)"/><rect class="cls-1" x="1031.67" y="707.53" width="85.04" height="85.04" transform="translate(2148.38 1500.09) rotate(-180)"/><rect class="cls-1" x="946.63" y="707.53" width="85.04" height="85.04" transform="translate(1978.3 1500.09) rotate(-180)"/><rect class="cls-1" x="861.59" y="707.53" width="85.04" height="85.04" transform="translate(1808.22 1500.09) rotate(-180)"/><rect class="cls-1" x="776.55" y="707.53" width="85.04" height="85.04" transform="translate(1638.14 1500.09) rotate(-180)"/><rect class="cls-1" x="691.51" y="707.53" width="85.04" height="85.04" transform="translate(1468.06 1500.09) rotate(-180)"/><rect class="cls-1" x="606.47" y="707.53" width="85.04" height="85.04" transform="translate(1297.98 1500.09) rotate(-180)"/><rect class="cls-1" x="521.43" y="707.53" width="85.04" height="85.04" transform="translate(1127.91 1500.09) rotate(-180)"/><rect class="cls-1" x="436.39" y="707.53" width="85.04" height="85.04" transform="translate(957.83 1500.09) rotate(-180)"/><rect class="cls-1" x="1541.91" y="792.57" width="85.04" height="85.04" transform="translate(3168.85 1670.17) rotate(-180)"/><rect class="cls-1" x="1456.87" y="792.57" width="85.04" height="85.04" transform="translate(2998.77 1670.17) rotate(-180)"/><rect class="cls-1" x="1371.83" y="792.57" width="85.04" height="85.04" transform="translate(2828.69 1670.17) rotate(-180)"/><rect class="cls-1" x="1286.79" y="792.57" width="85.04" height="85.04" transform="translate(2658.61 1670.17) rotate(-180)"/><rect class="cls-1" x="1201.75" y="792.57" width="85.04" height="85.04" transform="translate(2488.54 1670.17) rotate(-180)"/><rect class="cls-1" x="1116.71" y="792.57" width="85.04" height="85.04" transform="translate(2318.46 1670.17) rotate(-180)"/><rect class="cls-1" x="1031.67" y="792.57" width="85.04" height="85.04" transform="translate(2148.38 1670.17) rotate(-180)"/><rect class="cls-1" x="946.63" y="792.57" width="85.04" height="85.04" transform="translate(1978.3 1670.17) rotate(-180)"/><rect class="cls-1" x="861.59" y="792.57" width="85.04" height="85.04" transform="translate(1808.22 1670.17) rotate(-180)"/><rect class="cls-1" x="776.55" y="792.57" width="85.04" height="85.04" transform="translate(1638.14 1670.17) rotate(-180)"/><rect class="cls-1" x="691.51" y="792.57" width="85.04" height="85.04" transform="translate(1468.06 1670.17) rotate(-180)"/><rect class="cls-1" x="606.47" y="792.57" width="85.04" height="85.04" transform="translate(1297.98 1670.17) rotate(-180)"/><rect class="cls-1" x="521.43" y="792.57" width="85.04" height="85.04" transform="translate(1127.91 1670.17) rotate(-180)"/><rect class="cls-1" x="436.39" y="792.57" width="85.04" height="85.04" transform="translate(957.83 1670.17) rotate(-180)"/><rect class="cls-1" x="1541.91" y="877.61" width="85.04" height="85.04" transform="translate(3168.85 1840.25) rotate(-180)"/><rect class="cls-1" x="1456.87" y="877.61" width="85.04" height="85.04" transform="translate(2998.77 1840.25) rotate(-180)"/><rect class="cls-1" x="1371.83" y="877.61" width="85.04" height="85.04" transform="translate(2828.69 1840.25) rotate(-180)"/><rect class="cls-1" x="1286.79" y="877.61" width="85.04" height="85.04" transform="translate(2658.61 1840.25) rotate(-180)"/><rect class="cls-1" x="1201.75" y="877.61" width="85.04" height="85.04" transform="translate(2488.54 1840.25) rotate(-180)"/><rect class="cls-1" x="1116.71" y="877.61" width="85.04" height="85.04" transform="translate(2318.46 1840.25) rotate(-180)"/><rect class="cls-1" x="1031.67" y="877.61" width="85.04" height="85.04" transform="translate(2148.38 1840.25) rotate(-180)"/><rect class="cls-1" x="946.63" y="877.61" width="85.04" height="85.04" transform="translate(1978.3 1840.25) rotate(-180)"/><rect class="cls-1" x="861.59" y="877.61" width="85.04" height="85.04" transform="translate(1808.22 1840.25) rotate(-180)"/><rect class="cls-1" x="776.55" y="877.61" width="85.04" height="85.04" transform="translate(1638.14 1840.25) rotate(-180)"/><rect class="cls-1" x="691.51" y="877.61" width="85.04" height="85.04" transform="translate(1468.06 1840.25) rotate(-180)"/><rect class="cls-1" x="606.47" y="877.61" width="85.04" height="85.04" transform="translate(1297.98 1840.25) rotate(-180)"/><rect class="cls-1" x="521.43" y="877.61" width="85.04" height="85.04" transform="translate(1127.91 1840.25) rotate(-180)"/><rect class="cls-1" x="436.39" y="877.61" width="85.04" height="85.04" transform="translate(957.83 1840.25) rotate(-180)"/><rect class="cls-1" x="1541.91" y="962.65" width="85.04" height="85.04" transform="translate(3168.85 2010.33) rotate(-180)"/><rect class="cls-1" x="1456.87" y="962.65" width="85.04" height="85.04" transform="translate(2998.77 2010.33) rotate(-180)"/><rect class="cls-1" x="1371.83" y="962.65" width="85.04" height="85.04" transform="translate(2828.69 2010.33) rotate(-180)"/><rect class="cls-1" x="1286.79" y="962.65" width="85.04" height="85.04" transform="translate(2658.61 2010.33) rotate(-180)"/><rect class="cls-1" x="1201.75" y="962.65" width="85.04" height="85.04" transform="translate(2488.54 2010.33) rotate(-180)"/><rect class="cls-1" x="1116.71" y="962.65" width="85.04" height="85.04" transform="translate(2318.46 2010.33) rotate(-180)"/><rect class="cls-1" x="1031.67" y="962.65" width="85.04" height="85.04" transform="translate(2148.38 2010.33) rotate(-180)"/><rect class="cls-1" x="946.63" y="962.65" width="85.04" height="85.04" transform="translate(1978.3 2010.33) rotate(-180)"/><rect class="cls-1" x="861.59" y="962.65" width="85.04" height="85.04" transform="translate(1808.22 2010.33) rotate(-180)"/><rect class="cls-1" x="776.55" y="962.65" width="85.04" height="85.04" transform="translate(1638.14 2010.33) rotate(-180)"/><rect class="cls-1" x="691.51" y="962.65" width="85.04" height="85.04" transform="translate(1468.06 2010.33) rotate(-180)"/><rect class="cls-1" x="606.47" y="962.65" width="85.04" height="85.04" transform="translate(1297.98 2010.33) rotate(-180)"/><rect class="cls-1" x="521.43" y="962.65" width="85.04" height="85.04" transform="translate(1127.91 2010.33) rotate(-180)"/><rect class="cls-1" x="436.39" y="962.65" width="85.04" height="85.04" transform="translate(957.83 2010.33) rotate(-180)"/><rect class="cls-1" x="1541.91" y="1047.69" width="85.04" height="85.04" transform="translate(3168.85 2180.41) rotate(-180)"/><rect class="cls-1" x="1456.87" y="1047.69" width="85.04" height="85.04" transform="translate(2998.77 2180.41) rotate(-180)"/><rect class="cls-1" x="1371.83" y="1047.69" width="85.04" height="85.04" transform="translate(2828.69 2180.41) rotate(-180)"/><rect class="cls-1" x="1286.79" y="1047.69" width="85.04" height="85.04" transform="translate(2658.61 2180.41) rotate(-180)"/><rect class="cls-1" x="1201.75" y="1047.69" width="85.04" height="85.04" transform="translate(2488.54 2180.41) rotate(-180)"/><rect class="cls-1" x="1116.71" y="1047.69" width="85.04" height="85.04" transform="translate(2318.46 2180.41) rotate(-180)"/><rect class="cls-1" x="1031.67" y="1047.69" width="85.04" height="85.04" transform="translate(2148.38 2180.41) rotate(-180)"/><rect class="cls-1" x="946.63" y="1047.69" width="85.04" height="85.04" transform="translate(1978.3 2180.41) rotate(-180)"/><rect class="cls-1" x="861.59" y="1047.69" width="85.04" height="85.04" transform="translate(1808.22 2180.41) rotate(-180)"/><rect class="cls-1" x="776.55" y="1047.69" width="85.04" height="85.04" transform="translate(1638.14 2180.41) rotate(-180)"/><rect class="cls-1" x="691.51" y="1047.69" width="85.04" height="85.04" transform="translate(1468.06 2180.41) rotate(-180)"/><rect class="cls-1" x="606.47" y="1047.69" width="85.04" height="85.04" transform="translate(1297.98 2180.41) rotate(-180)"/><rect class="cls-1" x="521.43" y="1047.69" width="85.04" height="85.04" transform="translate(1127.91 2180.41) rotate(-180)"/><rect class="cls-1" x="436.39" y="1047.69" width="85.04" height="85.04" transform="translate(957.83 2180.41) rotate(-180)"/><rect class="cls-1" x="1541.91" y="1132.72" width="85.04" height="85.04" transform="translate(3168.85 2350.49) rotate(-180)"/><rect class="cls-1" x="1456.87" y="1132.72" width="85.04" height="85.04" transform="translate(2998.77 2350.49) rotate(-180)"/><rect class="cls-1" x="1371.83" y="1132.72" width="85.04" height="85.04" transform="translate(2828.69 2350.49) rotate(-180)"/><rect class="cls-1" x="1286.79" y="1132.72" width="85.04" height="85.04" transform="translate(2658.61 2350.49) rotate(-180)"/><rect class="cls-1" x="1201.75" y="1132.72" width="85.04" height="85.04" transform="translate(2488.54 2350.49) rotate(-180)"/><rect class="cls-1" x="1116.71" y="1132.72" width="85.04" height="85.04" transform="translate(2318.46 2350.49) rotate(-180)"/><rect class="cls-1" x="1031.67" y="1132.72" width="85.04" height="85.04" transform="translate(2148.38 2350.49) rotate(-180)"/><rect class="cls-1" x="946.63" y="1132.72" width="85.04" height="85.04" transform="translate(1978.3 2350.49) rotate(-180)"/><rect class="cls-1" x="861.59" y="1132.72" width="85.04" height="85.04" transform="translate(1808.22 2350.49) rotate(-180)"/><rect class="cls-1" x="776.55" y="1132.72" width="85.04" height="85.04" transform="translate(1638.14 2350.49) rotate(-180)"/><rect class="cls-1" x="691.51" y="1132.72" width="85.04" height="85.04" transform="translate(1468.06 2350.49) rotate(-180)"/><rect class="cls-1" x="606.47" y="1132.72" width="85.04" height="85.04" transform="translate(1297.98 2350.49) rotate(-180)"/><rect class="cls-1" x="521.43" y="1132.72" width="85.04" height="85.04" transform="translate(1127.91 2350.49) rotate(-180)"/><rect class="cls-1" x="436.39" y="1132.72" width="85.04" height="85.04" transform="translate(957.83 2350.49) rotate(-180)"/><rect class="cls-1" x="1541.91" y="1217.76" width="85.04" height="85.04" transform="translate(3168.85 2520.57) rotate(-180)"/><rect class="cls-1" x="1456.87" y="1217.76" width="85.04" height="85.04" transform="translate(2998.77 2520.57) rotate(-180)"/><rect class="cls-1" x="1371.83" y="1217.76" width="85.04" height="85.04" transform="translate(2828.69 2520.57) rotate(-180)"/><rect class="cls-1" x="1286.79" y="1217.76" width="85.04" height="85.04" transform="translate(2658.61 2520.57) rotate(-180)"/><rect class="cls-1" x="1201.75" y="1217.76" width="85.04" height="85.04" transform="translate(2488.54 2520.57) rotate(-180)"/><rect class="cls-1" x="1116.71" y="1217.76" width="85.04" height="85.04" transform="translate(2318.46 2520.57) rotate(-180)"/><rect class="cls-1" x="1031.67" y="1217.76" width="85.04" height="85.04" transform="translate(2148.38 2520.57) rotate(-180)"/><rect class="cls-1" x="946.63" y="1217.76" width="85.04" height="85.04" transform="translate(1978.3 2520.57) rotate(-180)"/><rect class="cls-1" x="861.59" y="1217.76" width="85.04" height="85.04" transform="translate(1808.22 2520.57) rotate(-180)"/><rect class="cls-1" x="776.55" y="1217.76" width="85.04" height="85.04" transform="translate(1638.14 2520.57) rotate(-180)"/><rect class="cls-1" x="691.51" y="1217.76" width="85.04" height="85.04" transform="translate(1468.06 2520.57) rotate(-180)"/><rect class="cls-1" x="606.47" y="1217.76" width="85.04" height="85.04" transform="translate(1297.98 2520.57) rotate(-180)"/><rect class="cls-1" x="521.43" y="1217.76" width="85.04" height="85.04" transform="translate(1127.91 2520.57) rotate(-180)"/><rect class="cls-1" x="436.39" y="1217.76" width="85.04" height="85.04" transform="translate(957.83 2520.57) rotate(-180)"/><rect class="cls-1" x="1541.91" y="1302.8" width="85.04" height="85.04" transform="translate(3168.85 2690.65) rotate(-180)"/><rect class="cls-1" x="1456.87" y="1302.8" width="85.04" height="85.04" transform="translate(2998.77 2690.65) rotate(-180)"/><rect class="cls-1" x="1371.83" y="1302.8" width="85.04" height="85.04" transform="translate(2828.69 2690.65) rotate(-180)"/><rect class="cls-1" x="1286.79" y="1302.8" width="85.04" height="85.04" transform="translate(2658.61 2690.65) rotate(-180)"/><rect class="cls-1" x="1201.75" y="1302.8" width="85.04" height="85.04" transform="translate(2488.54 2690.65) rotate(-180)"/><rect class="cls-1" x="1116.71" y="1302.8" width="85.04" height="85.04" transform="translate(2318.46 2690.65) rotate(-180)"/><rect class="cls-1" x="1031.67" y="1302.8" width="85.04" height="85.04" transform="translate(2148.38 2690.65) rotate(-180)"/><rect class="cls-1" x="946.63" y="1302.8" width="85.04" height="85.04" transform="translate(1978.3 2690.65) rotate(-180)"/><rect class="cls-1" x="861.59" y="1302.8" width="85.04" height="85.04" transform="translate(1808.22 2690.65) rotate(-180)"/><rect class="cls-1" x="776.55" y="1302.8" width="85.04" height="85.04" transform="translate(1638.14 2690.65) rotate(-180)"/><rect class="cls-1" x="691.51" y="1302.8" width="85.04" height="85.04" transform="translate(1468.06 2690.65) rotate(-180)"/><rect class="cls-1" x="606.47" y="1302.8" width="85.04" height="85.04" transform="translate(1297.98 2690.65) rotate(-180)"/><rect class="cls-1" x="521.43" y="1302.8" width="85.04" height="85.04" transform="translate(1127.91 2690.65) rotate(-180)"/><rect class="cls-1" x="436.39" y="1302.8" width="85.04" height="85.04" transform="translate(957.83 2690.65) rotate(-180)"/><rect class="cls-1" x="1541.91" y="1387.84" width="85.04" height="85.04" transform="translate(3168.85 2860.72) rotate(-180)"/><rect class="cls-1" x="1456.87" y="1387.84" width="85.04" height="85.04" transform="translate(2998.77 2860.72) rotate(-180)"/><rect class="cls-1" x="1371.83" y="1387.84" width="85.04" height="85.04" transform="translate(2828.69 2860.72) rotate(-180)"/><rect class="cls-1" x="1286.79" y="1387.84" width="85.04" height="85.04" transform="translate(2658.61 2860.72) rotate(-180)"/><rect class="cls-1" x="1201.75" y="1387.84" width="85.04" height="85.04" transform="translate(2488.54 2860.72) rotate(-180)"/><rect class="cls-1" x="1116.71" y="1387.84" width="85.04" height="85.04" transform="translate(2318.46 2860.72) rotate(-180)"/><rect class="cls-1" x="1031.67" y="1387.84" width="85.04" height="85.04" transform="translate(2148.38 2860.72) rotate(-180)"/><rect class="cls-1" x="946.63" y="1387.84" width="85.04" height="85.04" transform="translate(1978.3 2860.72) rotate(-180)"/><rect class="cls-1" x="861.59" y="1387.84" width="85.04" height="85.04" transform="translate(1808.22 2860.72) rotate(-180)"/><rect class="cls-1" x="776.55" y="1387.84" width="85.04" height="85.04" transform="translate(1638.14 2860.72) rotate(-180)"/><rect class="cls-1" x="691.51" y="1387.84" width="85.04" height="85.04" transform="translate(1468.06 2860.72) rotate(-180)"/><rect class="cls-1" x="606.47" y="1387.84" width="85.04" height="85.04" transform="translate(1297.98 2860.72) rotate(-180)"/><rect class="cls-1" x="521.43" y="1387.84" width="85.04" height="85.04" transform="translate(1127.91 2860.72) rotate(-180)"/><rect class="cls-1" x="436.39" y="1387.84" width="85.04" height="85.04" transform="translate(957.83 2860.72) rotate(-180)"/><rect class="cls-1" x="1626.94" y="622.49" width="85.04" height="85.04" transform="translate(2334.47 -1004.46) rotate(90)"/><rect class="cls-1" x="1626.94" y="707.53" width="85.04" height="85.04" transform="translate(2419.51 -919.42) rotate(90)"/><rect class="cls-1" x="1626.94" y="792.57" width="85.04" height="85.04" transform="translate(2504.55 -834.38) rotate(90)"/><rect class="cls-1" x="1626.94" y="877.61" width="85.04" height="85.04" transform="translate(2589.59 -749.34) rotate(90)"/><rect class="cls-1" x="1626.94" y="962.65" width="85.04" height="85.04" transform="translate(2674.63 -664.3) rotate(90)"/><rect class="cls-1" x="1626.94" y="1047.69" width="85.04" height="85.04" transform="translate(2759.67 -579.26) rotate(90)"/><rect class="cls-1" x="1626.94" y="1132.72" width="85.04" height="85.04" transform="translate(2844.71 -494.22) rotate(90)"/><rect class="cls-1" x="1626.94" y="1217.76" width="85.04" height="85.04" transform="translate(2929.75 -409.18) rotate(90)"/><rect class="cls-1" x="1626.94" y="1302.8" width="85.04" height="85.04" transform="translate(3014.79 -324.14) rotate(90)"/><rect class="cls-1" x="1541.91" y="1472.88" width="85.04" height="85.04" transform="translate(3168.85 3030.8) rotate(-180)"/><rect class="cls-1" x="1456.87" y="1472.88" width="85.04" height="85.04" transform="translate(2998.77 3030.8) rotate(-180)"/><rect class="cls-1" x="1371.83" y="1472.88" width="85.04" height="85.04" transform="translate(2828.69 3030.8) rotate(-180)"/><rect class="cls-1" x="1286.79" y="1472.88" width="85.04" height="85.04" transform="translate(2658.61 3030.8) rotate(-180)"/><rect class="cls-1" x="1201.75" y="1472.88" width="85.04" height="85.04" transform="translate(2488.54 3030.8) rotate(-180)"/><rect class="cls-1" x="1116.71" y="1472.88" width="85.04" height="85.04" transform="translate(2318.46 3030.8) rotate(-180)"/><rect class="cls-1" x="1031.67" y="1472.88" width="85.04" height="85.04" transform="translate(2148.38 3030.8) rotate(-180)"/><rect class="cls-1" x="946.63" y="1472.88" width="85.04" height="85.04" transform="translate(1978.3 3030.8) rotate(-180)"/><rect class="cls-1" x="861.59" y="1472.88" width="85.04" height="85.04" transform="translate(1808.22 3030.8) rotate(-180)"/><rect class="cls-1" x="776.55" y="1472.88" width="85.04" height="85.04" transform="translate(1638.14 3030.8) rotate(-180)"/><rect class="cls-1" x="691.51" y="1472.88" width="85.04" height="85.04" transform="translate(1468.06 3030.8) rotate(-180)"/><rect class="cls-1" x="606.47" y="1472.88" width="85.04" height="85.04" transform="translate(1297.98 3030.8) rotate(-180)"/><rect class="cls-1" x="521.43" y="1472.88" width="85.04" height="85.04" transform="translate(1127.91 3030.8) rotate(-180)"/><rect class="cls-1" x="351.35" y="537.45" width="85.04" height="85.04" transform="translate(787.75 1159.94) rotate(-180)"/><rect class="cls-1" x="266.31" y="537.45" width="85.04" height="85.04" transform="translate(617.67 1159.94) rotate(-180)"/><rect class="cls-1" x="266.31" y="112.25" width="85.04" height="85.04" transform="translate(617.67 309.54) rotate(-180)"/><rect class="cls-1" x="351.35" y="622.49" width="85.04" height="85.04" transform="translate(787.75 1330.02) rotate(-180)"/><rect class="cls-1" x="351.35" y="707.53" width="85.04" height="85.04" transform="translate(787.75 1500.09) rotate(-180)"/><rect class="cls-1" x="351.35" y="792.57" width="85.04" height="85.04" transform="translate(787.75 1670.17) rotate(-180)"/><rect class="cls-1" x="351.35" y="877.61" width="85.04" height="85.04" transform="translate(787.75 1840.25) rotate(-180)"/><rect class="cls-1" x="351.35" y="962.65" width="85.04" height="85.04" transform="translate(787.75 2010.33) rotate(-180)"/><rect class="cls-1" x="351.35" y="1047.69" width="85.04" height="85.04" transform="translate(787.75 2180.41) rotate(-180)"/><rect class="cls-1" x="351.35" y="1132.72" width="85.04" height="85.04" transform="translate(787.75 2350.49) rotate(-180)"/><rect class="cls-1" x="351.35" y="1217.76" width="85.04" height="85.04" transform="translate(787.75 2520.57) rotate(-180)"/><rect class="cls-1" x="351.35" y="1302.8" width="85.04" height="85.04" transform="translate(787.75 2690.65) rotate(-180)"/><rect class="cls-1" x="351.35" y="1387.84" width="85.04" height="85.04" transform="translate(787.75 2860.72) rotate(-180)"/><rect class="cls-1" x="351.35" y="1472.88" width="85.04" height="85.04" transform="translate(787.75 3030.8) rotate(-180)"/><rect class="cls-1" x="436.39" y="1472.88" width="85.04" height="85.04" transform="translate(957.83 3030.8) rotate(-180)"/><rect class="cls-1" x="1626.94" y="1472.88" width="85.04" height="85.04" transform="translate(3184.87 -154.06) rotate(90)"/><rect class="cls-1" x="1626.94" y="1387.84" width="85.04" height="85.04" transform="translate(3099.83 -239.1) rotate(90)"/><rect class="cls-1" x="1456.87" y="27.21" width="85.04" height="85.04" transform="translate(2998.77 139.46) rotate(-180)"/><rect class="cls-1" x="1456.87" y="27.21" width="85.04" height="85.04" transform="translate(2998.77 139.46) rotate(-180)"/><rect class="cls-1" x="1456.87" y="112.25" width="85.04" height="85.04" transform="translate(2998.77 309.54) rotate(-180)"/><rect class="cls-1" x="1456.87" y="112.25" width="85.04" height="85.04" transform="translate(2998.77 309.54) rotate(-180)"/><rect class="cls-1" x="1626.94" y="27.21" width="85.04" height="85.04" transform="translate(1739.2 -1599.73) rotate(90)"/><rect class="cls-1" x="1456.87" y="197.29" width="85.04" height="85.04" transform="translate(2998.77 479.62) rotate(-180)"/><rect class="cls-1" x="1456.87" y="197.29" width="85.04" height="85.04" transform="translate(2998.77 479.62) rotate(-180)"/><rect class="cls-1" x="1626.94" y="197.29" width="85.04" height="85.04" transform="translate(1909.28 -1429.65) rotate(90)"/><rect class="cls-1" x="1626.94" y="112.25" width="85.04" height="85.04" transform="translate(1824.24 -1514.69) rotate(90)"/><circle class="cls-1" cx="1669.46" cy="665.01" r="17.01"/><circle class="cls-1" cx="1584.43" cy="579.97" r="17.01"/><circle class="cls-1" cx="1669.46" cy="579.97" r="17.01"/><circle class="cls-1" cx="1754.5" cy="579.97" r="17.01"/><circle class="cls-1" cx="1754.5" cy="154.77" r="17.01"/><circle class="cls-1" cx="1414.35" cy="579.97" r="17.01"/><circle class="cls-1" cx="1244.27" cy="579.97" r="17.01"/><circle class="cls-1" cx="1074.19" cy="579.97" r="17.01"/><circle class="cls-1" cx="904.11" cy="579.97" r="17.01"/><circle class="cls-1" cx="734.03" cy="579.97" r="17.01"/><circle class="cls-1" cx="563.95" cy="579.97" r="17.01"/><circle class="cls-1" cx="1584.43" cy="665.01" r="17.01"/><circle class="cls-1" cx="1414.35" cy="665.01" r="17.01"/><circle class="cls-1" cx="1244.27" cy="665.01" r="17.01"/><circle class="cls-1" cx="1074.19" cy="665.01" r="17.01"/><circle class="cls-1" cx="904.11" cy="665.01" r="17.01"/><circle class="cls-1" cx="734.03" cy="665.01" r="17.01"/><circle class="cls-1" cx="563.95" cy="665.01" r="17.01"/><circle class="cls-1" cx="1584.43" cy="835.09" r="17.01"/><circle class="cls-1" cx="1584.43" cy="1005.17" r="17.01"/><circle class="cls-1" cx="1584.43" cy="1175.24" r="17.01"/><circle class="cls-1" cx="1584.43" cy="1345.32" r="17.01"/><circle class="cls-1" cx="1669.46" cy="835.09" r="17.01"/><circle class="cls-1" cx="1669.46" cy="1005.17" r="17.01"/><circle class="cls-1" cx="1669.46" cy="1175.24" r="17.01"/><circle class="cls-1" cx="1669.46" cy="1345.32" r="17.01"/><circle class="cls-1" cx="1584.43" cy="1515.4" r="17.01"/><circle class="cls-1" cx="1414.35" cy="1515.4" r="17.01"/><circle class="cls-1" cx="1244.27" cy="1515.4" r="17.01"/><circle class="cls-1" cx="1074.19" cy="1515.4" r="17.01"/><circle class="cls-1" cx="904.11" cy="1515.4" r="17.01"/><circle class="cls-1" cx="734.03" cy="1515.4" r="17.01"/><circle class="cls-1" cx="563.95" cy="1515.4" r="17.01"/><circle class="cls-1" cx="393.87" cy="579.97" r="17.01"/><circle class="cls-1" cx="308.83" cy="579.97" r="17.01"/><circle class="cls-1" cx="308.83" cy="154.77" r="17.01"/><circle class="cls-1" cx="393.87" cy="665.01" r="17.01"/><circle class="cls-1" cx="393.87" cy="835.09" r="17.01"/><circle class="cls-1" cx="393.87" cy="1005.17" r="17.01"/><circle class="cls-1" cx="393.87" cy="1175.24" r="17.01"/><circle class="cls-1" cx="393.87" cy="1345.32" r="17.01"/><circle class="cls-1" cx="393.87" cy="1515.4" r="17.01"/><circle class="cls-1" cx="1669.46" cy="1515.4" r="17.01"/><circle class="cls-1" cx="1499.39" cy="69.73" r="17.01"/><circle class="cls-1" cx="1669.46" cy="69.73" r="17.01"/><circle class="cls-1" cx="1499.39" cy="239.81" r="17.01"/><circle class="cls-1" cx="1669.46" cy="239.81" r="17.01"/><rect class="cls-1" x="1723.5" y="197.93" width="45" height="360" rx="22.5" transform="translate(3492 755.86) rotate(-180)"/><circle class="cls-1" cx="1746" cy="494.93" r="9"/><rect class="cls-1" x="256.5" y="197.93" width="45" height="360" rx="22.5" transform="translate(558 755.86) rotate(180)"/><circle class="cls-1" cx="279" cy="494.93" r="9"/><rect class="cls-1" x="256.5" y="282.93" width="1512" height="170.08" transform="translate(2025 735.94) rotate(-180)"/><rect class="cls-1" x="1768.5" y="282.97" width="189" height="170.08" transform="translate(3726 736.02) rotate(-180)"/><rect class="cls-1" x="67.5" y="282.97" width="189" height="170.08" transform="translate(324 736.02) rotate(-180)"/><line class="cls-1" x1="1669.46" y1="52.72" x2="1669.46" y2="86.74"/><line class="cls-1" x1="1686.47" y1="69.73" x2="1652.46" y2="69.73"/><line class="cls-1" x1="1499.39" y1="52.72" x2="1499.39" y2="86.74"/><line class="cls-1" x1="1516.39" y1="69.73" x2="1482.38" y2="69.73"/><line class="cls-1" x1="1499.39" y1="223.1" x2="1499.39" y2="257.12"/><line class="cls-1" x1="1516.39" y1="240.11" x2="1482.38" y2="240.11"/><line class="cls-1" x1="1669.46" y1="223.1" x2="1669.46" y2="257.12"/><line class="cls-1" x1="1686.47" y1="240.11" x2="1652.46" y2="240.11"/><line class="cls-1" x1="1754.65" y1="137.91" x2="1754.65" y2="171.93"/><line class="cls-1" x1="1771.66" y1="154.92" x2="1737.65" y2="154.92"/><line class="cls-1" x1="1754.5" y1="562.96" x2="1754.5" y2="596.98"/><line class="cls-1" x1="1771.51" y1="579.97" x2="1737.5" y2="579.97"/><line class="cls-1" x1="1584.43" y1="562.96" x2="1584.43" y2="596.98"/><line class="cls-1" x1="1601.43" y1="579.97" x2="1567.42" y2="579.97"/><line class="cls-1" x1="1584.43" y1="648" x2="1584.43" y2="682.02"/><line class="cls-1" x1="1601.43" y1="665.01" x2="1567.42" y2="665.01"/><line class="cls-1" x1="1414.35" y1="648" x2="1414.35" y2="682.02"/><line class="cls-1" x1="1431.35" y1="665.01" x2="1397.34" y2="665.01"/><line class="cls-1" x1="1244.27" y1="648" x2="1244.27" y2="682.02"/><line class="cls-1" x1="1261.28" y1="665.01" x2="1227.26" y2="665.01"/><line class="cls-1" x1="1074.19" y1="648" x2="1074.19" y2="682.02"/><line class="cls-1" x1="1091.2" y1="665.01" x2="1057.18" y2="665.01"/><line class="cls-1" x1="904.11" y1="648" x2="904.11" y2="682.02"/><line class="cls-1" x1="921.12" y1="665.01" x2="887.1" y2="665.01"/><line class="cls-1" x1="734.03" y1="648" x2="734.03" y2="682.02"/><line class="cls-1" x1="751.04" y1="665.01" x2="717.02" y2="665.01"/><line class="cls-1" x1="563.95" y1="648" x2="563.95" y2="682.02"/><line class="cls-1" x1="580.96" y1="665.01" x2="546.94" y2="665.01"/><line class="cls-1" x1="308.83" y1="137.76" x2="308.83" y2="171.78"/><line class="cls-1" x1="325.84" y1="154.77" x2="291.83" y2="154.77"/><line class="cls-1" x1="1584.43" y1="818.08" x2="1584.43" y2="852.09"/><line class="cls-1" x1="1601.43" y1="835.09" x2="1567.42" y2="835.09"/><line class="cls-1" x1="1584.43" y1="988.16" x2="1584.43" y2="1022.17"/><line class="cls-1" x1="1601.43" y1="1005.17" x2="1567.42" y2="1005.17"/><line class="cls-1" x1="1584.43" y1="1158.24" x2="1584.43" y2="1192.25"/><line class="cls-1" x1="1601.43" y1="1175.24" x2="1567.42" y2="1175.24"/><line class="cls-1" x1="1584.43" y1="1328.31" x2="1584.43" y2="1362.33"/><line class="cls-1" x1="1601.43" y1="1345.32" x2="1567.42" y2="1345.32"/><line class="cls-1" x1="1584.43" y1="1498.39" x2="1584.43" y2="1532.41"/><line class="cls-1" x1="1601.43" y1="1515.4" x2="1567.42" y2="1515.4"/><line class="cls-1" x1="1669.46" y1="562.96" x2="1669.46" y2="596.98"/><line class="cls-1" x1="1686.47" y1="579.97" x2="1652.46" y2="579.97"/><line class="cls-1" x1="1669.46" y1="648" x2="1669.46" y2="682.02"/><line class="cls-1" x1="1686.47" y1="665.01" x2="1652.46" y2="665.01"/><line class="cls-1" x1="1669.46" y1="818.08" x2="1669.46" y2="852.09"/><line class="cls-1" x1="1686.47" y1="835.09" x2="1652.46" y2="835.09"/><line class="cls-1" x1="1669.46" y1="988.16" x2="1669.46" y2="1022.17"/><line class="cls-1" x1="1686.47" y1="1005.17" x2="1652.46" y2="1005.17"/><line class="cls-1" x1="1669.46" y1="1158.24" x2="1669.46" y2="1192.25"/><line class="cls-1" x1="1686.47" y1="1175.24" x2="1652.46" y2="1175.24"/><line class="cls-1" x1="1669.46" y1="1328.31" x2="1669.46" y2="1362.33"/><line class="cls-1" x1="1686.47" y1="1345.32" x2="1652.46" y2="1345.32"/><line class="cls-1" x1="1669.46" y1="1498.39" x2="1669.46" y2="1532.41"/><line class="cls-1" x1="1686.47" y1="1515.4" x2="1652.46" y2="1515.4"/><line class="cls-1" x1="1414.35" y1="562.96" x2="1414.35" y2="596.98"/><line class="cls-1" x1="1431.35" y1="579.97" x2="1397.34" y2="579.97"/><line class="cls-1" x1="1244.27" y1="562.96" x2="1244.27" y2="596.98"/><line class="cls-1" x1="1261.28" y1="579.97" x2="1227.26" y2="579.97"/><line class="cls-1" x1="1074.19" y1="562.96" x2="1074.19" y2="596.98"/><line class="cls-1" x1="1091.2" y1="579.97" x2="1057.18" y2="579.97"/><line class="cls-1" x1="904.11" y1="562.96" x2="904.11" y2="596.98"/><line class="cls-1" x1="921.12" y1="579.97" x2="887.1" y2="579.97"/><line class="cls-1" x1="734.03" y1="562.96" x2="734.03" y2="596.98"/><line class="cls-1" x1="751.04" y1="579.97" x2="717.02" y2="579.97"/><line class="cls-1" x1="563.95" y1="562.96" x2="563.95" y2="596.98"/><line class="cls-1" x1="580.96" y1="579.97" x2="546.94" y2="579.97"/><line class="cls-1" x1="393.87" y1="562.96" x2="393.87" y2="596.98"/><line class="cls-1" x1="410.88" y1="579.97" x2="376.87" y2="579.97"/><line class="cls-1" x1="308.83" y1="562.96" x2="308.83" y2="596.98"/><line class="cls-1" x1="325.84" y1="579.97" x2="291.83" y2="579.97"/><line class="cls-1" x1="393.87" y1="648" x2="393.87" y2="682.02"/><line class="cls-1" x1="410.88" y1="665.01" x2="376.87" y2="665.01"/><line class="cls-1" x1="393.87" y1="818.08" x2="393.87" y2="852.09"/><line class="cls-1" x1="410.88" y1="835.09" x2="376.87" y2="835.09"/><line class="cls-1" x1="393.87" y1="988.16" x2="393.87" y2="1022.17"/><line class="cls-1" x1="410.88" y1="1005.17" x2="376.87" y2="1005.17"/><line class="cls-1" x1="393.87" y1="1158.24" x2="393.87" y2="1192.25"/><line class="cls-1" x1="410.88" y1="1175.24" x2="376.87" y2="1175.24"/><line class="cls-1" x1="393.87" y1="1328.31" x2="393.87" y2="1362.33"/><line class="cls-1" x1="410.88" y1="1345.32" x2="376.87" y2="1345.32"/><line class="cls-1" x1="393.87" y1="1498.39" x2="393.87" y2="1532.41"/><line class="cls-1" x1="410.88" y1="1515.4" x2="376.87" y2="1515.4"/><line class="cls-1" x1="563.95" y1="1498.39" x2="563.95" y2="1532.41"/><line class="cls-1" x1="580.96" y1="1515.4" x2="546.94" y2="1515.4"/><line class="cls-1" x1="734.03" y1="1498.39" x2="734.03" y2="1532.41"/><line class="cls-1" x1="751.04" y1="1515.4" x2="717.02" y2="1515.4"/><line class="cls-1" x1="904.11" y1="1498.39" x2="904.11" y2="1532.41"/><line class="cls-1" x1="921.12" y1="1515.4" x2="887.1" y2="1515.4"/><line class="cls-1" x1="1074.19" y1="1498.39" x2="1074.19" y2="1532.41"/><line class="cls-1" x1="1091.2" y1="1515.4" x2="1057.18" y2="1515.4"/><line class="cls-1" x1="1244.27" y1="1498.39" x2="1244.27" y2="1532.41"/><line class="cls-1" x1="1261.28" y1="1515.4" x2="1227.26" y2="1515.4"/><line class="cls-1" x1="1414.35" y1="1498.39" x2="1414.35" y2="1532.41"/><line class="cls-1" x1="1431.35" y1="1515.4" x2="1397.34" y2="1515.4"/></g></svg>